<svg id="Layer_1" data-name="Layer 1" xmlns="http://www.w3.org/2000/svg" xmlns:xlink="http://www.w3.org/1999/xlink" viewBox="0 450 1080 200"><defs><style>.cls-1{fill:url(#linear-gradient);}.cls-2{fill:url(#linear-gradient-2);}.cls-3{fill:url(#linear-gradient-3);}.cls-4{fill:url(#linear-gradient-4);}.cls-5{fill:#343c43;}</style><linearGradient id="linear-gradient" x1="101.22" y1="556.53" x2="243.92" y2="556.53" gradientUnits="userSpaceOnUse"><stop offset="0" stop-color="#a3c73f"/><stop offset="0.24" stop-color="#76ba40"/><stop offset="0.6" stop-color="#37a842"/><stop offset="0.86" stop-color="#0f9d44"/><stop offset="1" stop-color="#094"/></linearGradient><linearGradient id="linear-gradient-2" x1="145.41" y1="536.53" x2="269" y2="536.53" xlink:href="#linear-gradient"/><linearGradient id="linear-gradient-3" x1="144.94" y1="510.19" x2="220.92" y2="510.19" xlink:href="#linear-gradient"/><linearGradient id="linear-gradient-4" x1="185.21" y1="534.32" x2="222.81" y2="534.32" xlink:href="#linear-gradient"/></defs><path class="cls-1" d="M237.58,580.22H113.87c-.11-7.77,5.44-14.24,13.78-15.64,4.45-.75,5.26-6,3.79-9.31.26.59-.06-.2-.12-.38-.14-.43-.29-.86-.41-1.3a18.87,18.87,0,0,1-.52-2.37s0-.45,0-.62c0-.57-.05-1.13-.05-1.7s0-.91.06-1.36c0-.11.1-1,.08-.95a33.73,33.73,0,0,1,1.18-4.18,22.77,22.77,0,0,1,2.24-3.7,22,22,0,0,1,1.85-1.89c.27-.24.54-.48.82-.7l.51-.33c.76-.46,1.5-.93,2.29-1.33l1-.47.57-.19c.85-.25,1.68-.52,2.55-.72l1.14-.21.78-.07a21.14,21.14,0,0,1,2.64,0l.77.06,1.14.21a6.48,6.48,0,0,0,7.8-4.42c.87-3.16-1.06-7.08-4.43-7.8-10.38-2.21-21.9,1.08-28.78,9.41a29.34,29.34,0,0,0-6.26,23.89,28.61,28.61,0,0,0-15.85,34.1,6.47,6.47,0,0,0,6.11,4.65h129.1a6.34,6.34,0,0,0,0-12.68Z"/><path class="cls-2" d="M158.1,526.8c-.12-4.28,1.21-8,3.67-11.88a39.28,39.28,0,0,1,9.34-10.1c-.79.6,1.07-.74,1-.66.38-.26.78-.51,1.18-.75a26.23,26.23,0,0,1,3.1-1.64c-.66.29.39-.16.43-.17.66-.25,1.32-.48,2-.68,1.12-.34,2.26-.58,3.41-.83a24.39,24.39,0,0,1,11.89.91,22.24,22.24,0,0,1,4.73,2.27c.33.2.65.41,1,.63.11.07,1.61,1.21.57.38.74.59,1.45,1.22,2.14,1.89s1.32,1.35,1.94,2.07c.24.29.49.58.72.88-.83-1.07.27.44.35.55a33.71,33.71,0,0,1,2.75,4.95c-.5-1.11,0,0,.11.32s.32.88.47,1.33c.29.9.55,1.81.76,2.73.09.37.17.73.24,1.1,0,0,.31,1.8.16.83s.09.87.09.85c0,.56.08,1.12.1,1.69q0,1.41,0,2.82c0,.38-.06.76-.09,1.13-.11,1.82.3-1.22-.07.56a38.44,38.44,0,0,1-1.51,5.49c.41-1.11,0,.07-.16.35s-.43.87-.66,1.3a25.6,25.6,0,0,1-1.58,2.59s-.72.9-.26.34a15.57,15.57,0,0,1-1.17,1.26,6.75,6.75,0,0,1-2.3,1.62c.77-.37-.53.16-.73.21-1.24.35,1.47-.21-.68.12-.72.12-.88,0-.36.08.09,0-2.09-.4-1.06-.19a2.23,2.23,0,0,1-1.27-1c.38.48-.42-1.17-.09-.24,0-.11-.33-1.88-.26-1a6.35,6.35,0,0,1,1.66-4.75c0-.05,1.24-1.3,1.7-1.72s.84-.73,1.27-1.08c-1,.8.46-.32.55-.38a34.49,34.49,0,0,1,4.78-2.79l1-.46c-1.18.53-.08,0,.24-.07.93-.33,1.85-.66,2.8-.93s1.72-.45,2.59-.62c.43-.09,3-.42,1.47-.27a42.55,42.55,0,0,1,5.3-.22c.89,0,1.77.08,2.66.16l1.06.12c-1.59-.18.18,0,.43.08a42.46,42.46,0,0,1,5.21,1.25c.86.26,1.71.55,2.55.86l1,.39c1.66.64-1.12-.58.48.21s3.23,1.59,4.77,2.53c.77.47,1.53,1,2.27,1.48.3.2.59.42.89.63,1.43,1-.6-.51.22.15a44.78,44.78,0,0,1,4.21,3.82c.69.71,1.36,1.44,2,2.2.29.35.57.69.85,1.05-.86-1.1.22.32.31.45a39.8,39.8,0,0,1,3.06,5.1c.24.48.46,1,.69,1.47.58,1.23-.28-.91.2.5.32.95.67,1.89.95,2.86a30.88,30.88,0,0,1,1.24,7.44,33.18,33.18,0,0,1-2,13.65c-1.34,3.31-3.77,7.08-1.88,10.6a6.41,6.41,0,0,0,8.09,2.77c3.73-1.71,4.49-6,5.72-9.45A48.82,48.82,0,0,0,269,560.65a45.37,45.37,0,0,0-10.87-29.87c-11.71-14.09-32.34-21.41-50.12-16.09-10.38,3.11-22.15,11-22.78,22.88-.38,7.22,4.18,14.09,11.32,15.85,6.83,1.7,13.73-1.19,18.23-6.4,14.22-16.46,8.56-42.9-9.08-54.38-11.32-7.37-26.66-7.18-38.24-.54-11.83,6.79-22.43,20.6-22,34.7a6.34,6.34,0,0,0,12.68,0Z"/><path class="cls-3" d="M220.92,513a38.08,38.08,0,0,0-15.24-20.33c-11.31-7.36-26.66-7.17-38.24-.53-10,5.74-17,14.85-20.94,25.53-1.72,4.64-1.86,10.25-1.18,15.1,2.73.51,6.41,1,9-.18a6.33,6.33,0,0,0,3.75-5.76c-.12-4.28,1.21-8,3.67-11.87A39.1,39.1,0,0,1,170.9,505l.2-.16-.2.16s1.24-.88,1.15-.81c.39-.27.78-.52,1.18-.76a28.94,28.94,0,0,1,2.91-1.55l.19-.09-.19.09.62-.26c.66-.24,1.33-.47,2-.67,1.12-.35,2.27-.59,3.41-.84a24.56,24.56,0,0,1,11.9.92,21.52,21.52,0,0,1,4.73,2.27c.32.2.65.41,1,.63.08,0,.8.59.92.67l-.35-.3c.33.27.41.33.35.3.62.51,1.22,1,1.79,1.59s1.33,1.36,1.94,2.08c.15.17.29.35.43.52-.05-.07,0,0,.29.36l-.29-.36c.08.14.59.83.64.91a32.58,32.58,0,0,1,2.61,4.65c-.1-.24-.14-.32.14.29,0-.1-.09-.19-.14-.29l.13.3A42.63,42.63,0,0,1,220.92,513Z"/><path class="cls-4" d="M216.36,525.89c.53,0-1.5.22-1.88.3-.87.18-1.73.39-2.59.63-.61.17-1.22.37-1.82.58v.08c0,.11,0,.21,0,.29.25-1.09,0,1.09,0,0,0,.07,0,.16-.06.27a37.13,37.13,0,0,1-1.44,5.28c.12-.3.18-.46-.07.21a1.72,1.72,0,0,1,.07-.21l-.23.55c-.22.44-.42.87-.65,1.3a28.41,28.41,0,0,1-1.58,2.59l-.39.49.12-.14c-.17.21-.18.22-.12.14-.34.39-.69.76-1,1.12a6.53,6.53,0,0,1-2.13,1.53l-.17.09.17-.09c.36-.18-.71.25-.89.3l-.15,0c1-.14-.75.23,0,0l-.53.08a3.77,3.77,0,0,1-.47,0l.11,0-.24,0h.13l-1.07-.2.11,0c-.37-.07-.32-.07-.11,0a2.44,2.44,0,0,1-1.16-.95c.27.34-.05-.38-.14-.5,0,.14,0,.24.06.27-.1-.28-.1-.33-.06-.27-.08-.41-.2-1.09-.22-1s0,.15,0,.23c0-.13,0-.2,0-.23a6.43,6.43,0,0,1,1.68-4.53s1.24-1.3,1.69-1.71.62-.54.93-.8a3.39,3.39,0,0,1,.35-.29l-.35.29s.82-.62.89-.66a34.72,34.72,0,0,1,4.78-2.8l.6-.27c-.21.09-.24.1.39-.18l-.39.18c.17-.08.48-.21.63-.26l1-.34c0-.35.06-.7.08-1,.06-.94.07-1.89,0-2.83,0-.56-.06-1.13-.11-1.69L210,521c-.06-.33-.15-.85-.15-.83q-.11-.55-.24-1.11a28.08,28.08,0,0,0-.76-2.72c-.14-.45-.31-.89-.47-1.34,0-.07-.07-.19-.12-.31l-.23.06c-10.38,3.11-22.15,11-22.77,22.89-.38,7.21,4.17,14.08,11.31,15.85,6.83,1.69,13.74-1.19,18.24-6.41a33.46,33.46,0,0,0,8-21.29c-.52,0-1-.06-1.56-.08A44.32,44.32,0,0,0,216.36,525.89Z"/><path class="cls-5" d="M307.05,581.63V497.85H340q12.45,0,18.17,5.72t5.72,16.24a25.1,25.1,0,0,1-1.42,8.78,16,16,0,0,1-4,6.23,13.86,13.86,0,0,1-6.23,3.33,20.63,20.63,0,0,1,5.27,2.16,17.54,17.54,0,0,1,4.64,4,18.14,18.14,0,0,1,3.28,6.06,25.66,25.66,0,0,1,1.19,8.2c0,5.67-1,10.19-2.88,13.59a16.34,16.34,0,0,1-8.49,7.3,37.54,37.54,0,0,1-13.76,2.21Zm16.76-49.25h16.3a6.91,6.91,0,0,0,5.72-2.66,11,11,0,0,0,2.09-7c.08-3.7-.68-6.27-2.26-7.7a8.28,8.28,0,0,0-5.78-2.15H323.81Zm0,34.19H341a10.71,10.71,0,0,0,5.09-1.13,7.7,7.7,0,0,0,3.34-3.51,14.3,14.3,0,0,0,1.19-6.34,11.38,11.38,0,0,0-1.25-5.55,9,9,0,0,0-3.39-3.51,9.79,9.79,0,0,0-5-1.24H323.81Z"/><path class="cls-5" d="M409.63,582.2A66.58,66.58,0,0,1,396.72,581a28.47,28.47,0,0,1-10.47-4.19,19.39,19.39,0,0,1-6.91-8.38q-2.43-5.37-2.43-13.75V497.85h16.75v56.72a12.83,12.83,0,0,0,1.87,7.36,10.62,10.62,0,0,0,5.44,4,26.11,26.11,0,0,0,8.66,1.25,25.79,25.79,0,0,0,8.55-1.25,10.63,10.63,0,0,0,5.43-4,12.75,12.75,0,0,0,1.87-7.36V497.85h16.87v56.84q0,8.37-2.49,13.75a20,20,0,0,1-6.91,8.38A27.93,27.93,0,0,1,422.59,581,66.29,66.29,0,0,1,409.63,582.2Z"/><path class="cls-5" d="M473.26,581.63V512.91h-23V497.85h62.84v15.06H490v68.72Z"/><path class="cls-5" d="M542,581.63a26.91,26.91,0,0,1-10.92-2,13.33,13.33,0,0,1-6.69-6.34c-1.47-2.9-2.2-6.74-2.2-11.49v-64h16.75V559.1a8.85,8.85,0,0,0,1,4.42,5,5,0,0,0,2.66,2.32,11.22,11.22,0,0,0,3.85.62h26.49v15.17Z"/><path class="cls-5" d="M603.12,582.2a43.92,43.92,0,0,1-6.23-.51,19.26,19.26,0,0,1-6.73-2.32,14.1,14.1,0,0,1-5.33-5.49c-1.39-2.46-2.09-5.83-2.09-10.14V517a22.43,22.43,0,0,1,1.7-9.28,15,15,0,0,1,4.53-5.89,17.9,17.9,0,0,1,6.22-3.06,26,26,0,0,1,6.68-.9c5.67,0,10.66.07,15,.22s8.24.33,11.71.51,6.65.44,9.52.74v14H606.86a8,8,0,0,0-5.44,1.7,6.6,6.6,0,0,0-1.92,5.21v12.11l33.17.91v13.24l-33.17.91V559a9.1,9.1,0,0,0,1,4.58,5.06,5.06,0,0,0,2.6,2.27,9.82,9.82,0,0,0,3.46.62h31.59v14q-5,.57-11,.91t-12.23.56C610.72,582.12,606.82,582.2,603.12,582.2Z"/><path class="cls-5" d="M650.33,581.63V497.85H685a34.43,34.43,0,0,1,9.28,1.19,18.65,18.65,0,0,1,7.59,4.13,19.58,19.58,0,0,1,5.15,8.15,40.34,40.34,0,0,1,1.87,13.36,37,37,0,0,1-1.14,9.85,20.8,20.8,0,0,1-3,6.68,16.51,16.51,0,0,1-4.24,4.19,27,27,0,0,1-4.87,2.6l15.62,33.63H694.15l-13.48-31c-.9,0-1.94,0-3.11-.06s-2.36,0-3.57,0h-3.62c-1.21,0-2.3,0-3.28-.12v31.25Zm16.76-44.49H682a13.59,13.59,0,0,0,4.08-.57,7.46,7.46,0,0,0,3.17-2,9.44,9.44,0,0,0,2.09-3.79,21.2,21.2,0,0,0,.74-6.12,19.6,19.6,0,0,0-.74-5.83,8.47,8.47,0,0,0-2.09-3.62,7.41,7.41,0,0,0-3.17-1.81,15.08,15.08,0,0,0-4.08-.51H667.09Z"/><path class="cls-5" d="M741.59,581.63V506.45h-25.7V498.3h60.46v8.15h-25.7v75.18Z"/><path class="cls-5" d="M804.54,582.08a36.33,36.33,0,0,1-5.78-.5,16.86,16.86,0,0,1-5.77-2.1,11.77,11.77,0,0,1-4.42-4.81,19,19,0,0,1-1.7-8.78V515.06a20.27,20.27,0,0,1,1.42-8.1,12.88,12.88,0,0,1,3.79-5.09,15.52,15.52,0,0,1,5.32-2.72,21.08,21.08,0,0,1,5.89-.85q7,.12,13,.28l11.38.34q5.38.18,10.47.4v7.25h-32.6a10,10,0,0,0-7,2.37q-2.61,2.38-2.61,7.59v19.7l37.25.57v6.9l-37.25.57v19.59a11.56,11.56,0,0,0,1.42,6.34,6.65,6.65,0,0,0,3.79,2.83,17.79,17.79,0,0,0,4.87.68h32.15V581q-5.2.34-10.92.57c-3.81.15-7.63.26-11.44.34Z"/><path class="cls-5" d="M880.62,582.31a44.4,44.4,0,0,1-13-1.7,18.48,18.48,0,0,1-9.17-6.17q-3.63-4.47-5.38-12.85a110.26,110.26,0,0,1-1.75-21.85,99.42,99.42,0,0,1,1.81-20.89q1.82-8.21,5.49-12.85a19.51,19.51,0,0,1,9.34-6.51,42.62,42.62,0,0,1,13.36-1.87,75.67,75.67,0,0,1,7.81.45q4.3.46,8.5,1.08a70.75,70.75,0,0,1,7.58,1.53v6.68c-1.28-.23-3.1-.45-5.43-.68s-5-.43-8-.62-6-.29-9.11-.29a34.56,34.56,0,0,0-10.3,1.36,13.43,13.43,0,0,0-7,5q-2.65,3.68-3.9,10.36a97.72,97.72,0,0,0-1.25,17.32,106.71,106.71,0,0,0,1.19,17.61q1.19,6.85,3.79,10.47a13.13,13.13,0,0,0,6.8,5,34,34,0,0,0,10.41,1.36q8.49,0,13.93-.45c3.62-.3,6.57-.64,8.83-1v6.79q-3.39.79-7.53,1.42c-2.75.41-5.59.74-8.49,1S883.41,582.31,880.62,582.31Z"/><path class="cls-5" d="M919.12,581.63V498.3h9v38.61h41.67V498.3h8.94v83.33h-8.94V545.06H928.17v36.57Z"/></svg>